<svg xmlns="http://www.w3.org/2000/svg" viewBox="0 0 466.35 387.28"><defs><style>.cls-1{fill:#e44d26;}.cls-2{fill:#f16529;}.cls-3{fill:#ebebeb;}.cls-4{fill:#fff;}.cls-5{fill:#264de4;}.cls-6{fill:#2965f1;}</style></defs><g id="Layer_2" data-name="Layer 2"><g id="svg2"><g id="g3054"><polygon id="polygon3028" class="cls-1" points="269.22 74.68 244.69 349.44 134.44 380 24.5 349.48 0 74.68 269.22 74.68"></polygon><polygon id="polygon3030" class="cls-2" points="134.61 356.64 223.69 331.94 244.65 97.15 134.61 97.15 134.61 356.64"></polygon><polygon id="polygon3032" class="cls-3" points="86.93 164.56 134.61 164.56 134.61 130.85 134.49 130.85 50.1 130.85 50.9 139.89 59.19 232.77 134.61 232.77 134.61 199.07 90.01 199.07 86.93 164.56"></polygon><polygon id="polygon3034" class="cls-3" points="94.53 249.62 76.29 249.62 60.69 249.62 65.42 302.54 134.45 321.71 134.61 321.66 134.61 286.6 134.46 286.64 96.92 276.5 94.53 249.62"></polygon><path id="path3036" d="M25.05,0H42.18V16.92H57.84V0H75V51.24H57.84V34.08H42.18V51.24H25.05V0Z"></path><path id="path3038" d="M97.49,17H82.42V0h47.29V17H114.62V51.24H97.5V17Z"></path><path id="path3040" d="M137.21,0h17.86l11,18L177,0H194.9V51.24H177.84V25.84L166.06,44.06h-.3L154,25.84v25.4H137.21V0Z"></path><path id="path3042" d="M203.42,0h17.14V34.31h24.08V51.24H203.42Z"></path><polygon id="polygon3044" class="cls-4" points="134.49 232.77 175.99 232.77 172.08 276.48 134.49 286.63 134.49 321.69 203.59 302.54 204.09 296.85 212.01 208.12 212.83 199.07 203.75 199.07 134.49 199.07 134.49 232.77"></polygon><polygon id="polygon3046" class="cls-4" points="134.49 164.47 134.49 164.56 215.79 164.56 215.79 164.56 215.9 164.56 216.58 156.98 218.11 139.89 218.92 130.85 134.49 130.85 134.49 151.78 134.49 164.47"></polygon></g><g id="g3013"><polygon id="polygon2989" class="cls-5" points="322.78 387.28 244.16 349.15 263.55 138.76 466.35 175.83 410.04 379.43 322.78 387.28"></polygon><polygon id="polygon2991" class="cls-6" points="396.63 363.36 444.75 189.38 361.85 174.22 326.12 369.7 396.63 363.36"></polygon><polygon id="polygon2993" class="cls-3" points="288.73 240.2 286.36 266.01 343.18 276.39 347.82 251 288.73 240.2"></polygon><polygon id="polygon2995" class="cls-3" points="293.55 187.98 291.22 213.79 352.57 225 357.21 199.61 357.13 199.6 293.55 187.98"></polygon><polygon id="polygon2997" class="cls-3" points="335.77 316.94 335.65 316.95 308.77 304.15 310.66 283.57 296.92 281.06 285.18 278.91 281.45 319.42 330.82 343.37 330.94 343.36 335.77 316.94"></polygon><path id="path2999" d="M321.56,91.23l30.75,5.62L350,109.71l-17.89-3.27-2.36,12.86,17.9,3.27-2.35,12.86-30.76-5.62Z"></path><path id="path3001" d="M358.46,98l30.75,5.62-2,11.18-17.89-3.27-.41,2.24L386.75,117l-4.7,25.71-30.75-5.62,2.15-11.74,17.89,3.27.41-2.23-17.89-3.27Z"></path><path id="path3003" d="M395.36,104.72l30.75,5.62-2.05,11.18-17.89-3.27-.41,2.24,17.89,3.27L419,149.48l-30.75-5.62,2.15-11.74,17.89,3.27.41-2.24-17.89-3.27Z"></path><polygon id="polygon3005" class="cls-4" points="406.75 261.77 420.72 211.22 357.13 199.6 352.48 224.99 388.26 231.53 381.2 257.1 347.73 250.99 343.09 276.37 374.36 282.09 365.39 314.48 335.68 316.94 330.85 343.36 385.53 338.45 386.7 334.23 404.88 268.48 406.75 261.77"></polygon></g></g></g></svg>